<svg width="213" height="200" viewBox="0 0 213 200" fill="none" xmlns="http://www.w3.org/2000/svg">
<path d="M99.5295 199.059C154.498 199.059 199.059 154.498 199.059 99.5296C199.059 44.5609 154.498 0 99.5295 0C44.5609 0 0 44.5609 0 99.5296C0 154.498 44.5609 199.059 99.5295 199.059Z" fill="#292929"/>
<path d="M42.9987 91.4101C41.9731 91.4168 40.9689 91.1166 40.1153 90.548C39.2616 89.9795 38.5976 89.1686 38.2085 88.2196C37.8194 87.2706 37.7231 86.2269 37.9319 85.2228C38.1407 84.2186 38.6451 83.2998 39.3803 82.5846C55.3439 66.647 76.9795 57.6956 99.5371 57.6956C122.095 57.6956 143.73 66.647 159.694 82.5846C160.172 83.0627 160.551 83.6303 160.81 84.2549C161.069 84.8796 161.202 85.549 161.202 86.2251C161.202 86.9013 161.069 87.5707 160.81 88.1954C160.551 88.82 160.172 89.3876 159.694 89.8657C159.216 90.3437 158.648 90.723 158.024 90.9817C157.399 91.2404 156.729 91.3736 156.053 91.3736C155.377 91.3736 154.708 91.2404 154.083 90.9817C153.458 90.723 152.891 90.3437 152.413 89.8657C138.377 75.8561 119.357 67.9878 99.526 67.9878C79.6952 67.9878 60.6747 75.8561 46.6393 89.8657C46.1644 90.3507 45.5983 90.7369 44.9734 91.002C44.3486 91.2671 43.6774 91.4057 42.9987 91.4101Z" fill="white"/>
<path d="M60.4693 108.885C59.4466 108.885 58.4468 108.582 57.5968 108.013C56.7468 107.444 56.0848 106.636 55.6948 105.69C55.3048 104.745 55.2044 103.705 55.4063 102.703C55.6082 101.7 56.1033 100.78 56.8288 100.059C68.1617 88.755 83.5152 82.4068 99.5221 82.4068C115.529 82.4068 130.882 88.755 142.215 100.059C143.057 101.041 143.498 102.305 143.449 103.598C143.4 104.891 142.866 106.118 141.953 107.034C141.039 107.95 139.814 108.488 138.521 108.541C137.229 108.594 135.963 108.157 134.979 107.318C125.577 97.9366 112.837 92.6679 99.5552 92.6679C86.2733 92.6679 73.5338 97.9366 64.1319 107.318C63.657 107.811 63.0883 108.203 62.4592 108.472C61.8301 108.741 61.1535 108.882 60.4693 108.885Z" fill="white"/>
<path d="M77.9467 126.337C76.9192 126.348 75.912 126.051 75.0549 125.484C74.1978 124.918 73.5303 124.107 73.1384 123.157C72.7466 122.207 72.6484 121.161 72.8566 120.155C73.0647 119.149 73.5697 118.228 74.3062 117.512C81.0029 110.83 90.0764 107.078 99.5361 107.078C108.996 107.078 118.069 110.83 124.766 117.512C125.244 117.99 125.623 118.557 125.882 119.182C126.141 119.807 126.274 120.476 126.274 121.152C126.274 121.828 126.141 122.498 125.882 123.122C125.623 123.747 125.244 124.315 124.766 124.793C124.288 125.271 123.72 125.65 123.096 125.909C122.471 126.167 121.802 126.301 121.126 126.301C120.449 126.301 119.78 126.167 119.155 125.909C118.531 125.65 117.963 125.271 117.485 124.793C115.129 122.434 112.331 120.564 109.251 119.287C106.171 118.011 102.87 117.354 99.5361 117.354C96.2023 117.354 92.9012 118.011 89.8215 119.287C86.7417 120.564 83.9437 122.434 81.5873 124.793C80.6227 125.764 79.3156 126.319 77.9467 126.337Z" fill="white"/>
<path d="M104.736 137.567C105.768 138.598 106.471 139.911 106.756 141.341C107.042 142.77 106.896 144.253 106.339 145.6C105.781 146.947 104.837 148.099 103.625 148.909C102.413 149.719 100.987 150.151 99.5294 150.151C98.0715 150.151 96.6463 149.719 95.4342 148.909C94.2221 148.099 93.2775 146.947 92.7201 145.6C92.1626 144.253 92.0173 142.77 92.3026 141.341C92.5878 139.911 93.2907 138.598 94.3224 137.567C95.7041 136.188 97.5769 135.413 99.5294 135.413C101.482 135.413 103.355 136.188 104.736 137.567Z" fill="white"/>
<path d="M211.5 165.434C211.5 183.176 197.117 197.559 179.375 197.559C161.633 197.559 147.25 183.176 147.25 165.434C147.25 147.692 161.633 133.309 179.375 133.309C197.117 133.309 211.5 147.692 211.5 165.434Z" fill="#EE4545" stroke="#F8F8F8" stroke-width="3"/>
<path d="M190.072 177.997C189.831 177.999 189.593 177.952 189.371 177.861C189.148 177.77 188.946 177.636 188.775 177.466L166.439 155.026C166.14 154.675 165.984 154.224 166.001 153.763C166.019 153.301 166.21 152.863 166.535 152.537C166.86 152.21 167.296 152.019 167.756 152.001C168.215 151.984 168.665 152.14 169.014 152.441L191.46 174.862C191.631 175.033 191.767 175.236 191.86 175.459C191.952 175.682 192 175.922 192 176.164C192 176.406 191.952 176.646 191.86 176.869C191.767 177.092 191.631 177.295 191.46 177.466C191.278 177.647 191.061 177.788 190.822 177.88C190.583 177.971 190.327 178.011 190.072 177.997Z" fill="white"/>
<path d="M167.837 178C167.474 178.002 167.119 177.896 166.817 177.696C166.514 177.495 166.279 177.209 166.14 176.874C166.001 176.539 165.964 176.17 166.036 175.814C166.107 175.459 166.283 175.132 166.54 174.877L188.876 152.54C189.045 152.369 189.247 152.233 189.47 152.14C189.692 152.048 189.931 152 190.172 152C190.413 152 190.652 152.048 190.875 152.14C191.097 152.233 191.299 152.369 191.469 152.54C191.809 152.882 192 153.345 192 153.828C192 154.31 191.809 154.773 191.469 155.115L169.115 177.47C168.775 177.808 168.316 177.998 167.837 178Z" fill="white"/>
</svg>
