<svg width="40" height="40" viewBox="0 0 40 40" fill="none" xmlns="http://www.w3.org/2000/svg">
<path d="M18.6969 35.8517C9.51106 35.8517 2.03235 28.373 2.03235 19.1872C2.03235 10.0014 9.51106 2.52271 18.6969 2.52271C27.8827 2.52271 35.3614 10.0014 35.3614 19.1872C35.3614 28.373 27.8827 35.8517 18.6969 35.8517ZM18.6969 4.96141C10.8442 4.96141 4.47106 11.3508 4.47106 19.1872C4.47106 27.0236 10.8442 33.413 18.6969 33.413C26.5495 33.413 32.9227 27.0236 32.9227 19.1872C32.9227 11.3508 26.5495 4.96141 18.6969 4.96141Z" fill="white" stroke="white" stroke-width="1.39355"/>
<path d="M35.7678 37.4775C35.4589 37.4775 35.15 37.3637 34.9061 37.1198L31.6545 33.8682C31.183 33.3967 31.183 32.6164 31.6545 32.1449C32.126 31.6734 32.9064 31.6734 33.3779 32.1449L36.6295 35.3965C37.101 35.868 37.101 36.6484 36.6295 37.1198C36.3856 37.3637 36.0767 37.4775 35.7678 37.4775Z" fill="white" stroke="white" stroke-width="1.39355"/>
</svg>
